<?xml version="1.0" encoding="utf-8"?>
<!-- Generator: Adobe Illustrator 22.0.0, SVG Export Plug-In . SVG Version: 6.00 Build 0)  -->
<svg version="1.1" id="Layer_1" xmlns="http://www.w3.org/2000/svg" xmlns:xlink="http://www.w3.org/1999/xlink" x="0px" y="0px"
	 viewBox="0 0 67 67" style="enable-background:new 0 0 67 67;" width="67" height="67" xml:space="preserve">
<style type="text/css">
	.st0{fill:#717F8A;}
</style>
<title>icon-footer-twitter</title>
<g>
	<path class="st0" d="M34.5,4.1c-16.6,0-30,13.4-30,30s13.4,30,30,30c16.6,0,30-13.4,30-30S51,4.1,34.5,4.1z M51,40.9
		c0,1.4-0.3,2.8-0.8,4c-0.9,2.2-2.6,4-4.9,4.9c-1.3,0.5-2.7,0.7-4,0.8c-1.8,0.1-2.3,0.1-6.9,0.1c-4.5,0-5.1,0-6.9-0.1
		c-1.4,0-2.8-0.3-4-0.8c-2.2-0.9-4-2.6-4.9-4.9c-0.5-1.3-0.7-2.7-0.8-4c-0.1-1.8-0.1-2.3-0.1-6.9c0-4.5,0-5.1,0.1-6.9
		c0-1.4,0.3-2.8,0.8-4c0.9-2.2,2.6-4,4.9-4.9c1.3-0.5,2.7-0.7,4-0.8c1.8-0.1,2.3-0.1,6.9-0.1c4.5,0,5.1,0,6.9,0.1
		c1.4,0,2.8,0.3,4,0.8c2.2,0.9,4,2.6,4.9,4.9c0.5,1.3,0.7,2.7,0.8,4c0.1,1.8,0.1,2.3,0.1,6.9C51.1,38.6,51.1,39.2,51,40.9z"/>
	<path class="st0" d="M34.5,28.5c-3.1,0-5.6,2.5-5.6,5.6c0,3.1,2.5,5.6,5.6,5.6c3.1,0,5.6-2.5,5.6-5.6C40,31,37.5,28.5,34.5,28.5z"
		/>
	<path class="st0" d="M47.4,24.2c-0.3-0.7-0.7-1.4-1.2-1.9c-0.5-0.6-1.2-1-1.9-1.2c-1-0.4-2-0.6-3.1-0.6c-1.8-0.1-2.3-0.1-6.7-0.1
		c-4.4,0-5,0-6.7,0.1c-1.1,0-2.1,0.2-3.1,0.6c-0.7,0.3-1.4,0.7-1.9,1.2c-0.6,0.5-1,1.2-1.2,1.9c-0.4,1-0.6,2-0.6,3.1
		c-0.1,1.8-0.1,2.3-0.1,6.7c0,4.4,0,5,0.1,6.7c0,1.1,0.2,2.1,0.6,3.1c0.3,0.7,0.7,1.4,1.2,1.9c0.5,0.6,1.2,1,1.9,1.2
		c1,0.4,2,0.6,3.1,0.6c1.8,0.1,2.3,0.1,6.7,0.1c4.5,0,5,0,6.7-0.1c1.1,0,2.1-0.2,3.1-0.6c0.7-0.3,1.4-0.7,1.9-1.2
		c0.6-0.5,1-1.2,1.2-1.9c0.4-1,0.6-2,0.6-3.1v0c0.1-1.8,0.1-2.3,0.1-6.7c0-4.4,0-5-0.1-6.7C48,26.3,47.8,25.2,47.4,24.2z M34.5,42.6
		c-4.7,0-8.6-3.8-8.6-8.6s3.8-8.6,8.6-8.6c4.7,0,8.6,3.8,8.6,8.6C43,38.8,39.2,42.6,34.5,42.6z M43.4,27.2c-1.1,0-2-0.9-2-2
		c0-1.1,0.9-2,2-2c1.1,0,2,0.9,2,2C45.4,26.3,44.5,27.2,43.4,27.2z"/>
</g>
</svg>
