<svg id="Layer_1" xmlns="http://www.w3.org/2000/svg" width="67" height="67" viewBox="0 0 67 67"><style>.st0{fill:#717f8a}</style><path class="st0" d="M38.2 22.3c-2.6 1-4.3 3.4-4.1 6.1l.1 1-1-.1c-3.8-.5-7.1-2.1-10-4.9L21.7 23l-.4 1c-.8 2.3-.3 4.7 1.3 6.3.8.9.6 1-.8.5-.5-.2-.9-.3-1-.2-.1.1.4 2.1.8 2.8.5 1.1 1.7 2.1 2.9 2.7l1 .5h-1.2c-1.2 0-1.2 0-1.1.5.4 1.4 2.1 2.8 3.9 3.5l1.3.4-1.1.7c-1.7 1-3.6 1.5-5.6 1.6-.9 0-1.7.1-1.7.2 0 .2 2.6 1.4 4 1.9 4.5 1.4 9.8.8 13.7-1.6 2.8-1.7 5.7-5 7-8.2.7-1.7 1.4-4.9 1.4-6.4 0-1 .1-1.1 1.2-2.3.7-.7 1.3-1.4 1.5-1.6.2-.4.2-.4-.9 0-1.8.6-2 .6-1.2-.4.6-.7 1.4-1.9 1.4-2.3 0-.1-.3 0-.7.2-.4.2-1.2.5-1.8.7l-1.1.4-1-.7c-.6-.4-1.4-.8-1.8-.9-.9-.4-2.6-.4-3.5 0zM34 64C17.4 64 4 50.6 4 34S17.4 4 34 4s30 13.4 30 30-13.4 30-30 30z"/></svg>