<svg id="Layer_1" data-name="Layer 1" xmlns="http://www.w3.org/2000/svg" viewBox="0 0 512 512"><title>snapchat-flat</title><g id="Snapchat"><circle id="back" cx="256" cy="256" r="256" fill="#ffea00"/><g id="Snapchat-2" data-name="Snapchat"><path d="M257.77,387.77c-.72,0-1.43,0-2.14-.05h0c-.45,0-.93.05-1.4.05-16.63,0-27.31-7.55-37.63-14.84-7.13-5-13.86-9.79-21.78-11.11a70.3,70.3,0,0,0-11.44-1,78.3,78.3,0,0,0-15.85,1.79,34.44,34.44,0,0,1-5.91.85c-1.61,0-3.35-.34-4.11-2.93-.66-2.24-1.13-4.41-1.59-6.51-1.18-5.4-2-8.72-4.28-9.07-26.38-4.07-33.93-9.63-35.61-13.57a5.06,5.06,0,0,1-.41-1.69,3,3,0,0,1,2.48-3.1c40.55-6.68,58.74-48.13,59.5-49.89l.06-.14c2.48-5,3-9.4,1.45-13-2.79-6.56-11.86-9.44-17.87-11.35-1.47-.46-2.86-.91-4-1.34-12-4.74-13-9.61-12.52-12.08.8-4.23,6.45-7.17,11-7.17a7.71,7.71,0,0,1,3.28.66c5.39,2.52,10.25,3.8,14.45,3.8,5.79,0,8.32-2.43,8.63-2.75-.15-2.75-.33-5.61-.52-8.57-1.21-19.18-2.71-43,3.36-56.6,18.18-40.77,56.73-43.93,68.12-43.93l5-.05h.67c11.41,0,50,3.17,68.24,44,6.07,13.61,4.57,37.45,3.36,56.61l-.05.84c-.17,2.66-.33,5.26-.46,7.74.29.3,2.62,2.53,7.87,2.73h0a36,36,0,0,0,13.62-3.78,10.31,10.31,0,0,1,4.23-.84,12.87,12.87,0,0,1,4.87.93l.09,0c4.07,1.44,6.74,4.3,6.8,7.28.05,2.81-2.09,7-12.61,11.19-1.09.43-2.48.87-4,1.34-6,1.91-15.09,4.79-17.87,11.35-1.52,3.58-1,7.94,1.45,13a1.27,1.27,0,0,1,.07.15c.75,1.76,18.93,43.2,59.5,49.88a3,3,0,0,1,2.48,3.1,5,5,0,0,1-.41,1.7c-1.68,3.91-9.22,9.47-35.61,13.54-2.16.33-3,3.14-4.28,9-.47,2.14-.95,4.25-1.59,6.46a3.53,3.53,0,0,1-3.78,2.82h-.33a33.2,33.2,0,0,1-5.91-.74,78.69,78.69,0,0,0-15.85-1.68,70.39,70.39,0,0,0-11.45,1c-7.92,1.32-14.64,6.07-21.75,11.1C285.09,380.22,274.41,387.77,257.77,387.77Z" fill="#fff"/></g></g></svg>